<svg xmlns="http://www.w3.org/2000/svg" version="1.0" preserveAspectRatio="xMidYMid meet" viewBox="74 128 194 153.88">

<g transform="translate(0.000000,360.000000) scale(0.100000,-0.100000)" fill="#000000" stroke="none">
<path d="M2395 2301 c-191 -55 -342 -199 -400 -383 -23 -73 -24 -91 -25 -325 -1 -260 -10 -367 -36 -445 -21 -63 -84 -159 -145 -219 -55 -56 -51 -57 66 -7 196 82 317 200 365 356 17 56 20 93 20 286 0 264 7 298 77 376 71 79 126 102 256 108 l107 5 0 133 0 134 -112 -1 c-75 0 -133 -6 -173 -18z"/>
<path d="M1630 1702 c0 -457 0 -458 -81 -546 -153 -167 -417 -122 -509 87 -11 25 -23 73 -26 106 l-7 61 -133 0 -134 0 0 -47 c0 -75 27 -181 65 -261 50 -105 153 -207 264 -261 228 -110 487 -66 667 113 70 71 106 128 142 229 l27 72 3 423 4 422 -141 0 -141 0 0 -398z"/>
</g>
</svg>